<?xml version="1.0" standalone="no"?>
<!DOCTYPE svg PUBLIC "-//W3C//DTD SVG 20010904//EN"
 "http://www.w3.org/TR/2001/REC-SVG-20010904/DTD/svg10.dtd">
<svg version="1.0" xmlns="http://www.w3.org/2000/svg"
 width="415.000000pt" height="144.000000pt" viewBox="0 0 415.000000 144.000000"
 preserveAspectRatio="xMidYMid meet">

<g transform="translate(0.000000,144.000000) scale(0.100000,-0.100000)"
fill="#FFF" stroke="none">
<path d="M123 1383 c-12 -2 -34 -18 -48 -34 l-25 -31 0 -378 0 -379 23 -26
c28 -33 100 -45 148 -25 56 24 59 42 59 422 0 208 -4 358 -11 381 -5 20 -21
44 -33 53 -26 16 -79 25 -113 17z"/>
<path d="M812 1364 c-46 -32 -47 -35 -52 -501 l-5 -441 -30 -44 c-43 -62 -118
-98 -204 -98 -79 0 -131 22 -181 75 -63 66 -111 80 -166 46 -39 -24 -58 -69
-50 -116 8 -42 97 -138 166 -178 61 -35 150 -57 235 -57 209 0 384 126 447
323 19 57 21 95 26 464 2 221 1 423 -3 449 -10 66 -42 94 -109 94 -30 0 -61
-6 -74 -16z"/>
<path d="M1585 1365 c-22 -8 -41 -15 -42 -15 -12 -1 -33 -69 -33 -105 0 -67
27 -90 114 -99 149 -15 185 -62 186 -241 0 -95 -3 -117 -22 -155 -29 -56 -71
-77 -166 -86 -62 -6 -76 -11 -93 -33 -17 -21 -20 -36 -17 -80 4 -45 10 -59 35
-81 74 -66 251 -39 361 56 49 42 98 125 117 199 19 75 20 290 1 360 -41 153
-148 258 -290 284 -77 14 -102 13 -151 -4z"/>
<path d="M2209 1370 c-74 -21 -108 -70 -90 -129 10 -36 175 -321 263 -456 113
-174 122 -206 122 -457 1 -193 2 -208 22 -234 43 -58 147 -53 184 9 18 29 20
51 20 222 0 238 -9 277 -96 438 -125 228 -323 574 -337 585 -23 20 -62 29 -88
22z"/>
<path d="M2948 1369 c-9 -5 -57 -80 -106 -167 -191 -339 -188 -330 -152 -389
13 -23 31 -35 60 -43 73 -20 101 12 278 315 68 117 82 148 82 184 0 36 -6 49
-34 77 -27 27 -42 34 -72 34 -22 0 -47 -5 -56 -11z"/>
<path d="M3545 1356 c-49 -49 -48 -55 78 -427 64 -190 117 -348 117 -352 0 -4
-63 -7 -140 -7 -97 0 -140 3 -140 11 0 6 20 75 46 153 56 176 62 214 39 254
-33 56 -119 72 -157 29 -21 -23 -82 -191 -234 -637 -73 -212 -76 -227 -63
-254 22 -45 64 -71 114 -71 64 0 89 29 126 144 49 154 25 141 263 141 236 0
234 1 261 -94 31 -112 61 -165 100 -182 44 -18 97 -10 131 20 52 45 52 46
-170 666 -228 636 -225 630 -307 630 -29 0 -47 -7 -64 -24z"/>
<path d="M1233 1346 l-28 -24 -3 -602 -2 -601 28 -29 c55 -54 130 -48 176 13
21 28 21 39 24 580 2 304 0 572 -3 596 -10 65 -41 91 -109 91 -44 0 -61 -5
-83 -24z"/>
</g>
</svg>
